<svg xmlns="http://www.w3.org/2000/svg" xmlns:xlink="http://www.w3.org/1999/xlink" xml:space="preserve" version="1.1" style="shape-rendering:geometricPrecision;text-rendering:geometricPrecision;image-rendering:optimizeQuality;" viewBox="0 0 289 370" x="0px" y="0px" fill-rule="evenodd" clip-rule="evenodd"><defs><style type="text/css">
   
    .fil0 {fill:black}
   
  </style></defs><g><path class="fil0" d="M271 28l-43 0 0 -17c0,-15 -21,-15 -21,0l0 17 -121 0 0 -17c0,-15 -22,-15 -22,0l0 17 -46 0c-10,0 -18,8 -18,18l0 232c0,10 8,18 18,18l253 0c10,0 18,-8 18,-18l0 -232c0,-10 -8,-18 -18,-18zm-207 22l0 18c0,14 22,14 22,0l0 -18 121 0 0 18c0,14 21,14 21,0l0 -18 39 0 0 44 -246 0 0 -44 43 0zm-43 65l246 0 0 159 0 0 -246 0 0 -159z"/><path class="fil0" d="M189 152l-64 52 -25 -28c-8,-10 -23,3 -15,13l31 36c4,4 10,5 14,1l72 -58c10,-9 -2,-24 -13,-16z"/></g><text x="0" y="311" fill="#000000" font-size="5px" font-weight="bold" font-family="'Helvetica Neue', Helvetica, Arial-Unicode, Arial, Sans-serif">Created by SELicon</text><text x="0" y="316" fill="#000000" font-size="5px" font-weight="bold" font-family="'Helvetica Neue', Helvetica, Arial-Unicode, Arial, Sans-serif">from the Noun Project</text></svg>